# xmcd CD database file
#
# Track frame offsets:
#	150
#	21367
#	39022
#	63322
#	83807
#	104610
#	125842
#	149407
#	167195
#	186090
#	200480
#	229460
#	251822
#	284947
#	304527
#	329030
#
# Disc length: 4580 seconds
#
# Revision: 33
# Processed by: cddbd v1.5.2PL0 Copyright (c) Steve Scherf et al.
# Submitted via: CDex 1.81
#
DISCID=fb11e210
DTITLE=Eric Clapton - Clapton Chronicles The Best Of Eric Clapton
DYEAR=1999
DGENRE=Rock
TTITLE0=Blue Eyes Blue
TTITLE1=Change The World
TTITLE2=My Father's Eyes
TTITLE3=Tears In Heaven
TTITLE4=Layla [Unplugged Version]
TTITLE5=Pretending
TTITLE6=Bad Love
TTITLE7=Before You Accuse Me (Take A Look At Yourself)
TTITLE8=It's In The Way That You Use It
TTITLE9=Forever Man
TTITLE10=Running On Faith [Unplugged Version]
TTITLE11=She's Waiting
TTITLE12=River Of Tears
TTITLE13=(I) Get Lost
TTITLE14=Wonderful Tonight [Live Edit]
TTITLE15=Hard Times [Bonus Track]
EXTD=YEAR: 1999
EXTT0=
EXTT1=
EXTT2=
EXTT3=
EXTT4=
EXTT5=
EXTT6=
EXTT7=
EXTT8=
EXTT9=
EXTT10=
EXTT11=
EXTT12=
EXTT13=
EXTT14=
EXTT15=
PLAYORDER=
